<?xml version="1.0" standalone="no"?>
<!DOCTYPE svg PUBLIC "-//W3C//DTD SVG 20010904//EN"
 "http://www.w3.org/TR/2001/REC-SVG-20010904/DTD/svg10.dtd">
<svg version="1.0" xmlns="http://www.w3.org/2000/svg"
 width="255.000000pt" height="255.000000pt" viewBox="0 0 255.000000 255.000000"
 preserveAspectRatio="xMidYMid meet">
<metadata>
Created by potrace 1.14, written by Peter Selinger 2001-2017
</metadata>
<g transform="translate(0.000000,255.000000) scale(0.100000,-0.100000)"
fill="#000000" stroke="none">
<path d="M1385 2196 c-38 -17 -82 -67 -107 -124 -15 -33 -23 -42 -38 -37 -75
24 -260 24 -346 -1 -17 -4 -23 0 -28 19 -9 38 -92 124 -132 137 -45 15 -107 6
-151 -21 -64 -40 -92 -142 -59 -220 23 -55 90 -109 135 -109 27 0 27 -1 -9
-58 -43 -70 -102 -202 -140 -312 -44 -126 -70 -177 -148 -285 -78 -110 -174
-302 -203 -409 -56 -208 -8 -361 124 -397 54 -15 156 -6 230 20 58 20 59 20
85 1 25 -18 198 -70 335 -101 47 -10 138 -10 490 0 238 7 449 17 469 22 41 10
64 35 92 98 16 35 29 46 91 76 53 25 88 52 133 99 148 158 234 460 178 623
-31 93 -123 153 -234 153 -26 0 -45 7 -57 20 -9 10 -34 24 -54 30 -20 6 -47
17 -60 23 -15 8 -78 12 -168 12 l-144 0 -10 40 c-20 80 -72 222 -108 296 l-37
76 37 37 c46 45 63 92 57 158 -11 112 -122 178 -223 134z m-678 -32 c-3 -3
-12 -4 -19 -1 -8 3 -5 6 6 6 11 1 17 -2 13 -5z m-145 -73 c-9 -16 -18 -28 -21
-26 -4 5 27 55 34 55 2 0 -4 -13 -13 -29z m640 -75 c40 -8 86 -12 101 -9 18 4
32 0 40 -10 7 -8 21 -17 32 -19 11 -2 20 -11 20 -20 0 -20 41 -65 65 -73 10
-3 32 -32 49 -65 l32 -60 -78 7 c-64 5 -84 11 -109 32 -17 14 -39 32 -50 39
-18 12 -18 12 1 8 64 -16 75 -15 66 3 -22 40 -38 44 -78 20 -21 -13 -60 -26
-88 -30 -49 -5 -49 -6 -22 -17 15 -6 27 -19 27 -27 0 -13 -4 -14 -21 -5 -11 7
-49 10 -83 8 -60 -3 -62 -2 -58 20 3 14 11 21 21 20 12 -2 15 4 13 22 -9 81
-112 85 -202 10 l-25 -22 40 6 40 5 -45 -29 c-38 -26 -55 -30 -110 -30 -38 0
-71 -5 -78 -12 -19 -19 -14 -63 9 -84 17 -15 20 -27 16 -59 -3 -22 -8 -47 -11
-56 -4 -9 1 -26 13 -40 18 -22 25 -24 103 -21 103 3 148 15 188 48 16 14 30
21 30 15 0 -6 6 -11 12 -11 7 0 27 -17 46 -37 37 -43 41 -38 -59 -67 l-57 -16
-58 30 c-64 34 -97 34 -127 -2 -20 -24 -16 -61 10 -90 13 -15 12 -19 -19 -46
-51 -46 -27 -49 39 -4 109 74 233 125 353 145 l25 4 -26 2 c-15 0 -32 8 -39
16 -15 18 -16 17 28 32 29 10 38 9 69 -10 30 -17 55 -21 127 -23 130 -2 135 1
133 75 -1 54 2 62 26 85 16 14 30 26 32 26 2 0 20 -50 39 -110 31 -97 34 -119
29 -178 -3 -37 -11 -73 -17 -81 -9 -12 -8 -13 3 -6 10 5 12 4 7 -3 -11 -18
-36 -15 -30 3 4 8 1 15 -5 15 -6 0 -14 -18 -17 -40 -7 -42 -26 -66 -44 -55 -5
3 -10 14 -10 22 0 13 -4 12 -22 -6 -11 -13 -42 -33 -67 -45 -42 -19 -63 -21
-251 -21 -293 1 -494 34 -539 88 -11 14 -17 15 -28 5 -25 -21 -48 15 -46 73
l1 51 -20 -32 c-13 -23 -23 -29 -30 -22 -29 29 113 365 209 493 37 48 43 62
33 74 -10 12 -8 16 14 25 14 5 26 16 26 25 0 8 10 17 23 19 12 2 51 11 87 19
84 20 199 21 292 3z m-452 -267 c0 -14 -17 -10 -23 5 -4 10 -1 13 9 9 7 -3 14
-9 14 -14z m178 4 c-21 -2 -55 -2 -75 0 -21 2 -4 4 37 4 41 0 58 -2 38 -4z
m105 -10 c-7 -2 -19 -2 -25 0 -7 3 -2 5 12 5 14 0 19 -2 13 -5z m305 -10 c-15
-2 -42 -2 -60 0 -18 2 -6 4 27 4 33 0 48 -2 33 -4z m172 -13 c0 -5 -4 -10 -10
-10 -5 0 -10 5 -10 10 0 6 5 10 10 10 6 0 10 -4 10 -10z m-363 -18 c6 -4 14
-24 18 -45 l7 -37 -57 0 c-62 0 -60 -3 -34 68 9 22 42 30 66 14z m-260 -8 c19
-5 20 -8 9 -20 -8 -7 -17 -19 -19 -26 -4 -9 -10 -8 -21 6 -31 38 -19 53 31 40z
m103 -13 c0 -28 -63 -36 -68 -8 -3 14 4 17 32 17 20 0 36 -4 36 -9z m338 -22
c-10 -5 -18 -17 -18 -24 0 -21 -17 -18 -30 4 -15 29 -13 31 28 31 30 -1 34 -3
20 -11z m92 2 c0 -13 -39 -58 -40 -45 0 7 -9 14 -20 17 -33 9 -13 37 26 37 19
0 34 -4 34 -9z m-490 -198 l24 -16 -32 -16 c-31 -14 -34 -14 -55 9 -12 13 -15
19 -7 14 8 -6 26 -11 39 -12 22 -1 22 0 5 13 -11 8 -32 15 -49 15 -23 0 -27 3
-15 10 18 12 56 5 90 -17z m-72 -62 c-12 -4 -28 17 -28 38 0 8 8 3 19 -10 11
-14 15 -26 9 -28z m1055 -149 c-6 -24 -41 -68 -48 -61 -11 12 26 88 40 83 7
-3 11 -13 8 -22z m162 -215 l17 -27 -80 0 -80 0 -36 42 c-31 38 -33 44 -18 52
9 5 26 17 37 27 13 11 40 19 75 21 l55 3 6 -46 c4 -25 14 -58 24 -72z m-10
-67 c-82 -4 -219 -8 -302 -9 -84 0 -153 -5 -153 -10 0 -5 21 -57 46 -116 51
-121 50 -126 -26 -123 -26 0 -35 3 -21 5 13 3 20 8 15 11 -15 11 -94 181 -94
203 0 17 -8 19 -89 19 -59 0 -92 -4 -98 -12 -6 -7 -58 -134 -117 -283 -59
-148 -112 -274 -118 -280 -13 -12 -23 -38 106 290 59 148 113 277 122 285 16
16 247 25 669 26 l210 0 -150 -6z m-775 -32 c-43 -100 -230 -592 -226 -595 2
-3 154 0 337 6 344 11 515 14 508 7 -2 -2 -198 -9 -434 -16 l-430 -12 -195 52
c-107 29 -202 57 -210 62 -11 7 -10 8 5 4 274 -70 398 -97 404 -90 4 5 54 131
111 279 102 266 126 325 135 325 3 0 0 -10 -5 -22z m426 -292 c3 -13 17 -33
30 -45 13 -11 24 -25 24 -30 0 -8 64 -152 77 -173 2 -5 -24 -8 -59 -7 -44 0
-57 3 -43 9 11 5 15 9 8 9 -6 1 -11 9 -11 19 2 24 -39 112 -51 112 -6 0 -11
10 -11 23 0 29 -15 53 -24 38 -4 -6 -12 -11 -18 -11 -6 0 1 9 15 20 14 11 29
29 32 40 9 27 23 25 31 -4z m241 -216 c-10 -26 -16 -30 -47 -29 -30 2 -31 3
-7 6 15 2 35 15 43 29 22 32 25 30 11 -6z"/>
<path d="M1793 1698 c-21 -28 -22 -52 -2 -110 11 -34 18 -70 16 -80 -3 -10 -1
-16 4 -12 14 8 10 56 -6 84 -18 31 -19 102 -3 118 7 7 9 12 6 12 -3 0 -10 -6
-15 -12z"/>
<path d="M1837 1663 c-12 -12 -7 -73 8 -110 9 -20 13 -44 10 -52 -5 -13 -4
-13 6 -4 9 9 8 22 -5 58 -10 25 -16 62 -14 81 4 37 4 37 -5 27z"/>
</g>
</svg>
